<?xml version="1.0" encoding="UTF-8"?>
<svg width="111px" height="44px" viewBox="0 0 111 44" version="1.1" xmlns="http://www.w3.org/2000/svg" xmlns:xlink="http://www.w3.org/1999/xlink">
    <!-- Generator: Sketch 50.2 (55047) - http://www.bohemiancoding.com/sketch -->
    <title>Logo / Primary</title>
    <desc>Created with Sketch.</desc>
    <defs>
        <path d="M95.271237,22.573913 C95.2701254,22.5330815 95.2695652,22.4920689 95.2695652,22.4508906 C95.2695652,19.4597042 97.5917763,18.3652174 99.3858682,18.3652174 L101.470498,18.3652174 L100.421514,22.573913 L101.773913,22.573913 C101.773913,22.573913 101.768619,22.6222162 101.753416,22.7063465 L107.513204,22.7063465 L105.164435,31.9718554 L110.573913,31.9718554 C110.573913,33.7595604 108.858532,34.8173913 107.750625,34.8173913 L102.816148,34.8173913 C101.153562,34.8173913 100.546893,33.3217981 101.021895,31.3517867 L102.473297,25.5515581 L99.729041,25.5515581 L98.3040369,30.6590551 C98.0136599,31.7165616 97.5650564,31.9718554 96.7473651,31.9718554 L95.3749959,31.9718554 L97.0639791,25.5515581 C96.9910813,25.5288952 96.9196931,25.5017059 96.8499538,25.4702307 L90.5836305,25.4702307 C91.1923313,26.0271387 91.5888259,27.8099706 91.5095915,28.7750246 C91.2714043,32.8972662 88.7584964,35.1622123 85.3456087,35.1996918 C82.5391957,35.2213914 80.7803394,34.0953067 79.8957063,32.4598364 C79.5168017,34.203947 78.2896904,34.9415252 76.9929941,34.9415252 L71.6917289,34.9415252 C70.7545591,34.9415252 69.736869,33.500113 70.0582964,32.0587008 C70.0582964,32.0587008 70.620631,29.3609004 70.9149461,28.1781274 L66.4974429,33.2787744 C65.8282925,34.0545276 64.9445306,35.2 63.6323621,35.2 C61.6244209,35.2 61.7046144,33.3154177 62.0528274,32.0587008 C62.0528274,32.0587008 62.802498,29.3240928 63.0968131,28.1781274 L57.9030171,34.1656077 C57.4207127,34.7196936 56.8851637,34.9415252 56.2426356,34.9415252 L53.5652174,34.9415252 L53.8335242,33.8906807 C53.0550528,34.733557 51.9345883,34.934663 50.8373734,34.9102519 L48.5151629,34.9102519 C47.2872134,39.4917926 45.7658325,44 41.9484579,44 C40.0264994,44 38.7451394,42.4608148 38.7451394,39.784963 C38.7451394,37.9157778 39.1722594,35.6069185 40.400209,34.7639111 C38.9322385,34.2874074 37.4637795,32.674563 37.4637795,29.9988741 C37.4637795,29.4858667 37.5171899,28.9725333 37.6240106,28.459363 C38.4248402,24.3543259 41.227581,22.7418074 44.1104373,22.7418074 L51.5580875,22.7418074 L49.1826295,32.0512296 L54.303182,32.0512296 L56.697991,22.6717751 L61.4102993,22.6717751 L59.9379072,28.4369308 L63.9536261,23.8913557 C64.7838169,22.9675505 65.7211501,22.1913043 67.3276336,22.1913043 C68.1574977,22.1913043 69.2820036,22.7457189 68.7198323,24.8524615 C68.7198323,24.8524615 68.1305488,27.1067631 67.7826624,28.4369308 L71.6917289,23.8543838 C72.5214297,22.893278 73.3782427,22.1913043 74.8507982,22.1913043 C76.510853,22.1913043 76.7522502,23.7804399 76.2968948,25.5542708 L74.6102177,32.0587008 L79.7004525,32.0587008 C79.2401398,31.0020761 79.1072826,29.7709816 79.2611831,28.5153103 C79.6844657,24.987456 81.853648,22.573913 85.7422647,22.573913 L95.271237,22.573913 Z M23.7267347,11.9733778 C21.2874448,11.9733778 18.9222455,9.58841481 18.9222455,6.03614815 C18.9222455,5.47783704 18.9961733,4.86900741 19.1070649,4.31085926 L18.7004623,4.31085926 C12.7504188,4.10780741 7.57629099,13.1405185 7.57629099,20.9552444 C7.57629099,28.2118222 11.9002498,30.9520444 16.5940101,30.9520444 L19.9570711,18.0628148 L26.6833559,18.0628148 C25.168,23.8986815 23.6897708,29.7849037 22.2115416,35.6207704 C20.8070773,40.9996889 17.4438535,41.3551111 13.9329371,41.1012148 L15.5961484,34.9102519 C9.12861077,34.9102519 0,32.7285037 0,21.4120296 C0,18.4180741 0.776078468,15.4241185 1.88483178,12.8361037 C5.54360373,4.41222222 12.713455,0.0480740741 19.698324,0.0480740741 L23.7267347,0.0480740741 C26.1288978,0.0480740741 28.5312238,2.58540741 28.5312238,6.03614815 C28.5312238,9.58841481 26.1658617,11.9733778 23.7267347,11.9733778 Z M33.4075238,19.6996148 C31.4855653,19.6996148 29.9373165,17.793763 29.9373165,15.4114074 C29.9373165,13.0288889 31.4855653,11.123037 33.4075238,11.123037 C35.3027771,11.123037 36.851026,13.0288889 36.851026,15.4114074 C36.851026,17.793763 35.3027771,19.6996148 33.4075238,19.6996148 Z M34.7154261,34.9102519 L29.5636068,34.9102519 C28.1488839,34.9102519 27.3213491,33.6639111 27.8819949,31.4652148 L30.1509579,22.7418074 L34.8756571,22.7418074 L32.4733312,32.0512296 L37.7852186,32.0512296 C37.278146,34.4337481 35.569666,34.9102519 34.7154261,34.9102519 Z M43.3364757,25.6005037 L42.2952995,30.1455407 C41.8681795,32.0512296 43.0161764,32.4180593 43.817006,32.4180593 C44.0304846,32.4180593 44.2170951,32.3815556 44.4307365,32.3815556 L46.1126741,25.6005037 L43.3364757,25.6005037 Z M41.4947955,39.3817926 C41.4947955,40.1514667 41.7882268,40.8481333 42.2423776,41.2878074 L43.817006,35.3867556 C42.6424668,35.3867556 41.4947955,37.6957778 41.4947955,39.3817926 Z M84.7375534,25.4702307 L83.5735665,30.112066 C82.9117739,32.7488345 85.980452,32.3405233 85.980452,32.3405233 L87.7002092,25.4702307 L84.7375534,25.4702307 Z" id="path-1"></path>
    </defs>
    <g id="Logo-/-Primary" stroke="none" stroke-width="1" fill="none" fill-rule="evenodd">
        <mask id="mask-2" fill="white">
            <use xlink:href="#path-1"></use>
        </mask>
        <use id="Combined-Shape" fill="#FFFFFF" xlink:href="#path-1"></use>
        <g id="Color-/-Orange-1" mask="url(#mask-2)" fill="#E34B2A">
            <rect id="Color-/-Turquioise" x="0" y="0" width="111" height="44"></rect>
        </g>
    </g>
</svg>