<?xml version="1.0" encoding="UTF-8"?>
<svg width="57px" height="99px" viewBox="0 0 57 99" version="1.1" xmlns="http://www.w3.org/2000/svg" xmlns:xlink="http://www.w3.org/1999/xlink">
    <!-- Generator: Sketch 51.1 (57501) - http://www.bohemiancoding.com/sketch -->
    <title>gigmor-icon-growfanbase</title>
    <desc>Created with Sketch.</desc>
    <defs></defs>
    <g id="Design" stroke="none" stroke-width="1" fill="none" fill-rule="evenodd">
        <g id="gigmor-landing-desktop-copy-13" transform="translate(-771.000000, -3281.000000)" fill-rule="nonzero">
            <g id="Group-6" transform="translate(0.000000, 731.000000)">
                <g id="Talent" transform="translate(97.000000, 1668.000000)">
                    <g id="Group-23" transform="translate(123.000000, 851.000000)">
                        <g id="Group-3" transform="translate(400.000000, 0.000000)">
                            <g id="gigmor-icon-growfanbase" transform="translate(151.000000, 31.000000)">
                                <path d="M9.12987013,91.4025974 C9.12987013,91.4025974 24.5714286,106.12987 42.6103896,94.2597403 C42.6103896,94.2597403 60.5454545,85.1688312 56.0909091,56.6753247 C56.0909091,56.6753247 52.961039,67.4805195 44.4805195,71.5844156 C44.4805195,71.5844156 54.4805195,57.2077922 40.1948052,34.4415584 C25.9090909,11.6753247 27.6103896,21.8571429 28.0519481,0.792207792 C28.0519481,0.792207792 21.0909091,11.9480519 27.4285714,31.2337662 C27.4285714,31.2337662 34.2077922,40.9480519 32.0649351,49.8441558 C32.0649351,49.8441558 29.6623377,38.9090909 23.4935065,35.0649351 C17.3246753,31.2207792 14.4025974,24.8961039 14.6623377,21.8571429 C14.1344487,27.5743589 15.4790457,33.3082674 18.4935065,38.1948052 C23.5844156,46.6753247 15.8181818,53.6493506 15.8181818,53.6493506 C15.8181818,53.6493506 10.8181818,58.5454545 11.5324675,64.1688312 C11.5324675,64.1688312 5.03896104,62.1168831 8.05194805,49.1818182 C0.361543098,58.4185475 -1.68901475,71.1101069 2.7012987,82.2987013 C2.7012987,82.2987013 7.03896104,89.7142857 9.12987013,91.4025974 Z" id="Shape" fill="#675A5B" opacity="0.62"></path>
                                <path d="M41.3506494,13.012987 C41.3506494,13.012987 43.1428571,24.987013 48.0519481,30.4285714 C52.961039,35.8701299 57.5974026,47.8311688 50.8181818,58.1948052 C50.8181818,58.1948052 55.1948052,48.4675325 46.9220779,37.4805195 C41.5630099,30.5380882 39.5257538,21.5912571 41.3506494,13.012987 Z" id="Shape" fill="#675A5B" opacity="0.33"></path>
                                <path d="M11.8051948,28.1038961 C11.2902624,32.7444747 12.6039841,37.4030621 15.4675325,41.0909091 C20.2857143,47.5194805 11.5714286,54.8441558 11.2727273,56.3636364 C11.2727273,56.3636364 13.6753247,49.8701299 12.7012987,45.8181818 C11.7272727,41.7662338 9.06493506,33.012987 11.8051948,28.1038961 Z" id="Shape" fill="#675A5B" opacity="0.33"></path>
                                <path d="M11.4415584,90.3376623 C11.4415584,90.3376623 21.5324675,105.688312 39.9220779,94.7922078 C39.9220779,94.7922078 52.2467532,88.1948052 48.6753247,70.4285714 C46.9667372,74.4934345 44.0343691,77.9251223 40.2857143,80.2467532 C40.2857143,80.2467532 45.2987013,74.974026 40.6883117,58.6363636 C40.6883117,58.6363636 35.6623377,51.0519481 40.6883117,45.2467532 C40.6883117,45.2467532 34.7532468,50.0649351 33.8571429,56.9350649 C32.961039,63.8051948 32.1558442,64.3376623 31.3506494,65.5064935 C31.3506494,65.5064935 30.0519481,59.7922078 27.1558442,58.6233766 C24.2597403,57.4545455 21.8961039,56.5714286 22.961039,52.5584416 C21.638608,55.5131631 20.9104921,58.6992216 20.8181818,61.9350649 C21,66.2207792 19.6623377,69.4285714 17.3376623,71.1298701 C15.012987,72.8311688 16.2727273,75.9480519 16.2727273,75.9480519 C16.2727273,75.9480519 10.5194805,73.3506494 13.7532468,65.4155844 C9.21914688,70.0617843 7.19870983,76.6064535 8.32467532,83 C8.32467532,83 9.88311688,88.4285714 11.4415584,90.3376623 Z" id="Shape" fill="#E24C29"></path>
                                <path d="M15.1948052,90.5064935 C15.1948052,90.5064935 18.6233766,102.675325 34.1818182,97.4805195 C34.1818182,97.4805195 41.5324675,93.7272727 39.2987013,83.2857143 C37.0649351,72.8441558 36.2597403,74.3506494 38.3246753,69.0909091 C36.1721829,72.5398262 34.4906107,76.2611237 33.3246753,80.1558442 C31.6233766,86.1428571 26.3506494,85.2467532 26.6233766,80.6883117 C27.1825233,74.249195 25.8271078,67.7883812 22.7272727,62.1168831 C22.7272727,62.1168831 26.1298701,71.4935065 19.0779221,77.2987013 C15.0242219,80.3713195 13.4491006,85.7288389 15.1948052,90.5064935 Z" id="Shape" fill="#EC916D"></path>
                            </g>
                        </g>
                    </g>
                </g>
            </g>
        </g>
    </g>
</svg>