<?xml version="1.0" encoding="UTF-8"?>
<svg width="101px" height="98px" viewBox="0 0 101 98" version="1.1" xmlns="http://www.w3.org/2000/svg" xmlns:xlink="http://www.w3.org/1999/xlink">
    <!-- Generator: Sketch 51.1 (57501) - http://www.bohemiancoding.com/sketch -->
    <title>gigmor-icon-postavails</title>
    <desc>Created with Sketch.</desc>
    <defs></defs>
    <g id="Design" stroke="none" stroke-width="1" fill="none" fill-rule="evenodd">
        <g id="gigmor-landing-desktop-copy-13" transform="translate(-1151.000000, -3282.000000)">
            <g id="Group-6" transform="translate(0.000000, 731.000000)">
                <g id="Talent" transform="translate(97.000000, 1668.000000)">
                    <g id="Group-23" transform="translate(123.000000, 851.000000)">
                        <g id="Group-3" transform="translate(800.000000, 0.000000)">
                            <g id="gigmor-icon-postavails" transform="translate(130.000000, 34.000000)">
                                <circle id="Oval" fill="#E24C29" fill-rule="nonzero" cx="64.2317073" cy="39.9390244" r="5.08536585"></circle>
                                <path d="M27.3780488,55.4634146 L23.2439024,45.7073171 C23.2439024,45.7073171 39.7682927,35.0609756 49.402439,16.4390244 L49.0853659,15.695122 C48.5924874,14.7882479 48.9182034,13.6536706 49.8170732,13.1463415 L53.4756098,11.6097561 C54.1178456,11.4384218 54.8029134,11.5574101 55.3497599,11.935274 C55.8966065,12.3131379 56.2501935,12.9118468 56.3170732,13.5731707 L67,38.6463415 L67,38.7317073 L77.5853659,63.8536585 C78.0126819,64.3608813 78.1965988,65.0297162 78.0887057,65.6841113 C77.9808126,66.3385064 77.591919,66.9128994 77.0243902,67.2560976 L73.3658537,68.7926829 C72.38311,69.0958581 71.3393121,68.5522134 71.0243902,67.5731707 L70.7073171,66.8292683 C50.6585366,60.8170732 31.5121951,65.2804878 31.5121951,65.2804878 L27.3780488,55.5243902 L27.3780488,55.4634146 Z" id="Shape" fill="#675A5B" fill-rule="nonzero"></path>
                                <path d="M19.902439,72.2317073 L16.5121951,73.6585366 C16.5121951,73.6585366 6.04878049,75.8536585 2.36585366,66.195122 C-2.01219512,56.8292683 6.84146341,50.8414634 6.84146341,50.8414634 L16.2073171,46.8780488 C18.0687309,46.385253 19.9935256,47.4196302 20.6097561,49.2439024 L23.9268293,57.0609756 L27.2439024,64.8780488 C27.2439024,64.8780488 27.6341463,65.5243902 28.0853659,66.3292683 L41.5,87.8170732 C41.5,87.8170732 43.2073171,90.0731707 40.2804878,91.6341463 L32.1829268,95.0731707 C31.0888283,95.5911632 29.7805429,95.1693079 29.195122,94.1097561 L19.902439,72.2317073 Z" id="Shape" fill="#675A5B" fill-rule="nonzero"></path>
                                <path d="M67.9268293,12.2682927 C67.9268293,12.2682927 91.097561,28.4634146 86.0365854,55.0243902" id="Shape" stroke="#E24C29" stroke-width="5" stroke-linecap="round"></path>
                                <path d="M73.0365854,0.548780488 C73.0365854,0.548780488 105.036585,22.902439 98.0243902,59.4878049" id="Shape" stroke="#E24C29" stroke-width="5" stroke-linecap="round"></path>
                            </g>
                        </g>
                    </g>
                </g>
            </g>
        </g>
    </g>
</svg>