<?xml version="1.0" encoding="UTF-8"?>
<svg width="219px" height="100px" viewBox="0 0 219 100" version="1.1" xmlns="http://www.w3.org/2000/svg" xmlns:xlink="http://www.w3.org/1999/xlink">
    <!-- Generator: Sketch 51.1 (57501) - http://www.bohemiancoding.com/sketch -->
    <title>gigmor-icon-findgigs</title>
    <desc>Created with Sketch.</desc>
    <defs></defs>
    <g id="Design" stroke="none" stroke-width="1" fill="none" fill-rule="evenodd">
        <g id="gigmor-landing-desktop-copy-13" transform="translate(-290.000000, -3281.000000)" fill-rule="nonzero">
            <g id="Group-6" transform="translate(0.000000, 731.000000)">
                <g id="Talent" transform="translate(97.000000, 1668.000000)">
                    <g id="Group-23" transform="translate(123.000000, 851.000000)">
                        <g id="Group-3">
                            <g id="gigmor-icon-findgigs" transform="translate(70.000000, 31.000000)">
                                <polygon id="Shape" fill="#B5ACAC" points="56.1181102 41.2047244 162.944882 41.2047244 219.070866 99.3543307 0 98"></polygon>
                                <path d="M30.976378,74.3700787 L12.3228346,92.5275591 L54.5984252,92.5275591 L70.4251969,91.8740157 L76.4409449,67.8267717 L67.6141732,66.6850394 C67.6141732,66.6850394 61.3937008,65.8976378 58.6141732,70.2834646 C55.8346457,74.6692913 44.3858268,75.6850394 43.4015748,75.519685 C42.4173228,75.3543307 30.976378,74.3700787 30.976378,74.3700787 Z" id="Shape" fill="#675A5B"></path>
                                <path d="M73.8976378,91.8740157 L78.0787402,68.976378 C78.4313931,68.3452977 79.0160475,67.8764444 79.7086614,67.6692913 C80.8503937,67.3385827 104.07874,55.5590551 106.03937,54.4173228 C108,53.2755906 106.03937,47.8740157 106.03937,47.8740157 L113.07874,47.2204724 C113.07874,47.2204724 109.968504,58.503937 101.267717,62.1023622 C92.5669291,65.7007874 82.2913386,70.9370079 82.2913386,71.4251969 C82.2913386,71.9133858 78.015748,91.8976378 78.015748,91.8976378 L73.8976378,91.8740157 Z" id="Shape" fill="#675A5B"></path>
                                <polygon id="Shape" fill="#675A5B" points="83.3149606 79.5748031 81.2834646 91.9291339 102.614173 92.5275591 110.212598 87.7480315"></polygon>
                                <polygon id="Shape" fill="#675A5B" points="83.9685039 76.992126 84.7874016 72.496063 96.5905512 66.6220472 129.84252 74.5433071 113.086614 85.496063"></polygon>
                                <polygon id="Shape" fill="#675A5B" points="132.874016 72.4645669 100.818898 64.8897638 115.700787 55.0708661 148.228346 61.6299213"></polygon>
                                <polygon id="Shape" fill="#675A5B" points="151.031496 59.6535433 141.204724 57.6850394 116.519685 52.2913386 123.433071 44.1259843 157.944882 45.4094488 163.622047 50.8188976"></polygon>
                                <polygon id="Shape" fill="#675A5B" points="114.559055 93.8346457 120.11811 89.9133858 123.88189 90.8897638"></polygon>
                                <polygon id="Shape" fill="#675A5B" points="129.110236 89.2598425 123.228346 87.9448819 138.826772 77.1496063 151.590551 79.6299213 165.708661 82.2834646 155.850394 89.2598425"></polygon>
                                <polygon id="Shape" fill="#675A5B" points="170.661417 80.4251969 151.511811 76.496063 143.015748 74.5354331 148.740157 70.2834646 157.574803 64.7244094 184.724409 70.6062992"></polygon>
                                <polygon id="Shape" fill="#675A5B" points="187.015748 73.3937008 156.787402 94.3858268 207.811024 94.6692913"></polygon>
                                <polygon id="Shape" fill="#675A5B" points="180.724409 66.3543307 160.755906 62.2677165 169.511811 56.2125984"></polygon>
                                <path d="M109.062992,65.5984252 C109.062992,65.5984252 92.0866142,45.7480315 87.015748,32.0551181 C87.015748,32.0551181 77.5669291,2.13385827 109.062992,0 L109.244094,0 C140.740157,2.12598425 131.291339,32.0551181 131.291339,32.0551181 C126.19685,45.7480315 109.244094,65.5984252 109.244094,65.5984252 L109.062992,65.5984252 Z" id="Shape" fill="#E24C29"></path>
                                <path d="M109.188976,52.8110236 C109.188976,52.8110236 97.1338583,38.7244094 93.519685,29 C93.519685,29 86.8110236,7.74015748 109.188976,6.24409449 L109.314961,6.24409449 C131.692913,7.75590551 124.992126,29 124.992126,29 C121.370079,38.7244094 109.314961,52.8110236 109.314961,52.8110236 L109.188976,52.8110236 Z" id="Shape" fill="#FFFFFF"></path>
                                <path d="M96.7637795,37.6929134 L99.7401575,40.3228346 C99.7401575,40.3228346 107.732283,49.6614173 118.771654,40.3228346 L123.606299,39.4566929 L109.503937,57.2519685 L95.4566929,38.3543307 L96.7637795,37.6929134 Z" id="Shape" fill="#E24C29"></path>
                                <path d="M114.165354,31.4015748 C114.165354,29.0393701 112.826772,27.9370079 109.661417,26.8188976 L108.283465,26.3385827 C104.346457,24.9527559 102.055118,22.9448819 102.055118,19.2125984 C102.055118,15.480315 105.149606,12.4330709 109.433071,12.4330709 C113.19685,12.4330709 116.181102,14.6692913 116.401575,17.8740157 C116.165394,18.5749141 115.503314,19.0428259 114.76378,19.0314961 C113.976378,19.0314961 113.015748,18.511811 112.566929,16.5669291 L111.929134,13.7401575 L113.874016,15.0787402 C112.593871,14.5576214 111.224668,14.2901989 109.84252,14.2913386 C107.086614,14.2913386 104.96063,15.6692913 104.96063,18.4645669 C104.96063,20.8267717 106.456693,22.1574803 109.102362,23.015748 L110.511811,23.496063 C115.543307,25.2519685 117.07874,27.6692913 117.07874,30.7244094 C117.07874,34.7165354 114.015748,37.5433071 108.952756,37.5433071 C104.96063,37.5433071 101.944882,35.3464567 101.795276,32.1023622 C102.044905,31.3952556 102.722894,30.9305307 103.472441,30.9527559 C104.370079,30.9527559 105.188976,31.4330709 105.629921,33.4094488 L106.267717,36.2440945 L104.291339,34.8976378 C105.836716,35.4873718 107.479935,35.778609 109.133858,35.7559055 C112.188976,35.7244094 114.165354,34.1653543 114.165354,31.4015748 Z M108.76378,25.0314961 L110.251969,25.0314961 L110.251969,41.3149606 L108.76378,41.3149606 L108.76378,25.0314961 Z M108.80315,25.0314961 L108.80315,9.07874016 L110.291339,9.07874016 L110.291339,25.0314961 L108.80315,25.0314961 Z" id="Shape" fill="#675A5B"></path>
                            </g>
                        </g>
                    </g>
                </g>
            </g>
        </g>
    </g>
</svg>