<?xml version="1.0" encoding="UTF-8"?>
<svg width="208px" height="99px" viewBox="0 0 208 99" version="1.1" xmlns="http://www.w3.org/2000/svg" xmlns:xlink="http://www.w3.org/1999/xlink">
    <!-- Generator: Sketch 51.1 (57501) - http://www.bohemiancoding.com/sketch -->
    <title>gigmor-icon-findgigs</title>
    <desc>Created with Sketch.</desc>
    <defs></defs>
    <g id="Design" stroke="none" stroke-width="1" fill="none" fill-rule="evenodd">
        <g id="gigmor-landing-desktop-copy-13" transform="translate(-296.000000, -3281.000000)" fill-rule="nonzero">
            <g id="Group-6" transform="translate(0.000000, 731.000000)">
                <g id="Talent" transform="translate(97.000000, 1668.000000)">
                    <g id="Group-23" transform="translate(123.000000, 851.000000)">
                        <g id="Group-3">
                            <g id="gigmor-icon-findgigs" transform="translate(76.000000, 31.000000)">
                                <path d="M32.056338,69 C32.056338,69 46.7605634,69 48,69 C50.1407452,69.0316711 52.1827461,68.1011391 53.5633803,66.4647887 C55.1126761,64.2957746 58.4225352,60.9014085 62.4929577,61.6619718 C66.5633803,62.4225352 72.915493,63.4788732 75.7042254,62.4929577 C78.4929577,61.5070423 92.2253521,54.8873239 93.3521127,53 C94.4788732,51.1126761 95.7183099,49.5915493 91.6760563,49.1267606 C87.6338028,48.6619718 90.4788732,45.5352113 90.4788732,45.5352113 L91.028169,43.5633803 L78.2253521,42.7887324 L54.2816901,46.6901408 L32.056338,69 Z" id="Shape" fill="#675A5B"></path>
                                <polygon id="Shape" fill="#9D9292" points="128.014085 39 148.774648 83.3098592 207.323944 97.7042254 154.211268 42.3521127"></polygon>
                                <polygon id="Shape" fill="#B5ACAC" points="128.014085 39 103.014085 44.5915493 103.661972 98.9859155 148.774648 83.3098592"></polygon>
                                <polygon id="Shape" fill="#9D9292" points="103.014085 44.5915493 80.0422535 39 58.8732394 83.3098592 103.661972 98.9859155"></polygon>
                                <polygon id="Shape" fill="#B5ACAC" points="80.0422535 39 58.8732394 83.3098592 0 96.4225352 53.1126761 42.6760563"></polygon>
                                <path d="M29.5774648,70.8028169 L11.9295775,87.9859155 L60.6901408,76.5352113 L69.5070423,79.3521127 L72.6056338,64.5633803 L64.2535211,63.4788732 C64.2535211,63.4788732 58.3661972,62.7042254 55.8028169,66.8873239 C53.2394366,71.0704225 42.3380282,72 41.4084507,71.8450704 C40.4788732,71.6901408 29.5774648,70.8028169 29.5774648,70.8028169 Z" id="Shape" fill="#675A5B"></path>
                                <path d="M71.5211268,80.084507 L74.1549296,65.6901408 C74.4923467,65.092783 75.04737,64.6487643 75.7042254,64.4507042 C76.7887324,64.1408451 98.7746479,53 100.619718,51.915493 C102.464789,50.8309859 100.619718,45.7183099 100.619718,45.7183099 L107.28169,45.1126761 C107.28169,45.1126761 104.338028,55.7887324 96.1408451,59.1971831 C87.943662,62.6056338 78.2253521,67.5492958 78.2253521,68.0140845 C78.2253521,68.4788732 75.9014085,81.3239437 75.9014085,81.3239437 L71.5211268,80.084507 Z" id="Shape" fill="#675A5B"></path>
                                <polygon id="Shape" fill="#675A5B" points="79.1126761 75.7183099 78.1830986 82.2535211 97.3802817 87.9859155 103.661972 83.1830986"></polygon>
                                <polygon id="Shape" fill="#675A5B" points="79.7323944 73.2676056 80.5070423 69.0140845 91.6760563 63.4647887 122.450704 70.8028169 107.28169 81.3239437"></polygon>
                                <polygon id="Shape" fill="#675A5B" points="126.014085 69 95.6760563 61.8169014 109.760563 52.5352113 139.323944 59.028169"></polygon>
                                <polygon id="Shape" fill="#675A5B" points="143.197183 56.8732394 134.985915 54.7042254 110.535211 49.9014085 116.112676 44.4788732 130.352113 45.0985915 155.112676 48.5070423"></polygon>
                                <polygon id="Shape" fill="#675A5B" points="108.676056 89.2253521 113.943662 85.5070423 117.492958 86.4366197"></polygon>
                                <polygon id="Shape" fill="#675A5B" points="122.450704 84.8873239 116.873239 83.6478873 131.647887 73.4225352 145.366197 75.7183099 149.380282 76.6760563 145.521127 77.1408451"></polygon>
                                <polygon id="Shape" fill="#675A5B" points="161.774648 76.5211268 144.28169 72.3943662 135.605634 70.9577465 141.028169 66.9295775 149.380282 61.6619718 175.084507 67.2394366"></polygon>
                                <polygon id="Shape" fill="#675A5B" points="177.253521 69.8732394 166.098592 77.6056338 190.71831 83.6478873"></polygon>
                                <polygon id="Shape" fill="#675A5B" points="171.295775 63.2112676 152.394366 59.3380282 160.690141 53.6197183"></polygon>
                                <path d="M103.478873,62.4929577 C103.478873,62.4929577 87.4084507,43.7183099 82.5915493,30.7605634 C82.5915493,30.7605634 73.6478873,2.42253521 103.478873,0.422535211 L103.647887,0.422535211 C133.478873,2.42253521 124.549296,30.7605634 124.549296,30.7605634 C119.71831,43.7183099 103.647887,62.4929577 103.647887,62.4929577 L103.478873,62.4929577 Z" id="Shape" fill="#E24C29"></path>
                                <path d="M103.577465,50.3943662 C103.577465,50.3943662 92.1690141,37.056338 88.7464789,27.8591549 C88.7464789,27.8591549 82.3943662,7.76056338 103.577465,6.32394366 L103.690141,6.32394366 C124.816901,7.73239437 118.521127,27.8591549 118.521127,27.8591549 C115.098592,37.056338 103.690141,50.3943662 103.690141,50.3943662 L103.577465,50.3943662 Z" id="Shape" fill="#FFFFFF"></path>
                                <path d="M91.8450704,36.084507 L94.6619718,38.5774648 C94.6619718,38.5774648 102.225352,47.4225352 112.661972,38.5774648 L117.239437,37.7605634 L103.901408,54.6619718 L90.6056338,36.8028169 L91.8450704,36.084507 Z" id="Shape" fill="#E24C29"></path>
                                <path d="M108.309859,30.1408451 C108.309859,27.915493 107.042254,26.8591549 104.084507,25.8028169 L102.774648,25.3380282 C99.0704225,24.0422535 96.8873239,22.1267606 96.8873239,18.6056338 C96.9252237,16.8046375 97.7001207,15.0979988 99.0311162,13.884131 C100.362112,12.6702631 102.132714,12.0554064 103.929577,12.1830986 C107.492958,12.1830986 110.309859,14.2957746 110.521127,17.3380282 C110.298749,18.0004273 109.670335,18.4403165 108.971831,18.4225352 C108.197183,18.4225352 107.309859,17.9295775 106.887324,16.0985915 L106.295775,13.4225352 L108.126761,14.6901408 C106.918627,14.1806917 105.621012,13.9173381 104.309859,13.915493 C101.704225,13.915493 99.6901408,15.2253521 99.6901408,17.8591549 C99.6901408,20.1267606 101.098592,21.3521127 103.605634,22.1690141 L105.014085,22.6197183 C109.774648,24.2816901 111.211268,26.5774648 111.211268,29.4647887 C111.211268,33.2394366 108.323944,35.915493 103.521127,35.915493 C99.7464789,35.915493 96.9014085,33.8450704 96.7605634,30.7746479 C96.9887516,30.102278 97.6282503,29.6569129 98.3380282,29.6760563 C99.1830986,29.6760563 99.9577465,30.1408451 100.380282,32 L100.985915,34.6901408 L99.1126761,33.4225352 C100.57954,33.9748505 102.136977,34.2471631 103.704225,34.2253521 C106.394366,34.2253521 108.309859,32.7464789 108.309859,30.1408451 Z M103.197183,24.0985915 L104.605634,24.0985915 L104.605634,39.5211268 L103.197183,39.5211268 L103.197183,24.0985915 Z M103.197183,24.0985915 L103.197183,9.01408451 L104.605634,9.01408451 L104.605634,24.0985915 L103.197183,24.0985915 Z" id="Shape" fill="#675A5B"></path>
                            </g>
                        </g>
                    </g>
                </g>
            </g>
        </g>
    </g>
</svg>