<?xml version="1.0" encoding="UTF-8"?>
<svg width="99px" height="100px" viewBox="0 0 99 100" version="1.1" xmlns="http://www.w3.org/2000/svg" xmlns:xlink="http://www.w3.org/1999/xlink">
    <!-- Generator: Sketch 51.1 (57501) - http://www.bohemiancoding.com/sketch -->
    <title>gigmor-icon-postgigs</title>
    <desc>Created with Sketch.</desc>
    <defs></defs>
    <g id="Design" stroke="none" stroke-width="1" fill="none" fill-rule="evenodd">
        <g id="gigmor-landing-desktop-copy-13" transform="translate(-751.000000, -1607.000000)">
            <g id="Group-6" transform="translate(0.000000, 731.000000)">
                <g id="Talent-Seekers" transform="translate(95.000000, 0.000000)">
                    <g id="Group-8" transform="translate(125.000000, 847.000000)">
                        <g id="Group-3" transform="translate(400.000000, 0.000000)">
                            <g id="gigmor-icon-postgigs" transform="translate(130.000000, 30.000000)">
                                <polyline id="Shape" stroke="#675A5B" stroke-width="3" points="3.21126761 74.2 3.21126761 16.6857143 3.21126761 1.42857143 97.1830986 1.42857143 97.1830986 74.2"></polyline>
                                <path d="M3.21126761,16.6857143 L97.1830986,16.6857143" id="Shape" stroke="#675A5B" stroke-width="3"></path>
                                <path d="M34.5915493,1.41428571 L34.5915493,16.6857143" id="Shape" stroke="#675A5B" stroke-width="3"></path>
                                <path d="M66.1549296,1.41428571 L66.1549296,16.6857143" id="Shape" stroke="#675A5B" stroke-width="3"></path>
                                <path d="M8.16901408,1.41428571 L30.9295775,16.6857143" id="Shape" stroke="#675A5B" stroke-width="3"></path>
                                <path d="M5.5915493,17.2428571 L30.9295775,1.41428571" id="Shape" stroke="#675A5B" stroke-width="3"></path>
                                <path d="M40.0985915,1.41428571 L62.8591549,16.6857143" id="Shape" stroke="#675A5B" stroke-width="3"></path>
                                <path d="M37.5352113,17.2428571 L62.8591549,1.41428571" id="Shape" stroke="#675A5B" stroke-width="3"></path>
                                <path d="M70.6056338,1.41428571 L93.3661972,16.6857143" id="Shape" stroke="#675A5B" stroke-width="3"></path>
                                <path d="M68.028169,17.2428571 L93.3661972,1.41428571" id="Shape" stroke="#675A5B" stroke-width="3"></path>
                                <rect id="Rectangle-path" fill="#675A5B" fill-rule="nonzero" x="15.8732394" y="16.6857143" width="6.23943662" height="6.32857143" rx="2.22"></rect>
                                <rect id="Rectangle-path" fill="#675A5B" fill-rule="nonzero" x="47.2535211" y="16.6857143" width="6.23943662" height="6.32857143" rx="2.22"></rect>
                                <rect id="Rectangle-path" fill="#675A5B" fill-rule="nonzero" x="78.8591549" y="16.6857143" width="6.23943662" height="6.32857143" rx="2.22"></rect>
                                <rect id="Rectangle-path" fill="#675A5B" fill-rule="nonzero" x="1.38028169" y="79.4142857" width="97.8169014" height="19.5428571"></rect>
                                <polygon id="Shape" fill="#E24C29" fill-rule="nonzero" opacity="0.8" points="20.2816901 26.3571429 25.056338 74.2 36.4366197 74.2"></polygon>
                                <polygon id="Shape" fill="#E24C29" fill-rule="nonzero" opacity="0.8" points="80.6901408 26.3571429 75.9295775 74.2 64.5492958 74.2"></polygon>
                                <polygon id="Shape" fill="#E24C29" fill-rule="nonzero" opacity="0.8" points="50.1971831 26.3571429 45.2394366 74.2 56.4366197 74.2"></polygon>
                            </g>
                        </g>
                    </g>
                </g>
            </g>
        </g>
    </g>
</svg>